<svg width="36" height="22" viewBox="0 0 36 22" fill="none" xmlns="http://www.w3.org/2000/svg">
<line x1="3.63355" y1="2.703" x2="31.9931" y2="2.703" stroke="white" stroke-width="1.77247" stroke-linecap="round"/>
<line x1="3.63355" y1="8.02044" x2="31.9931" y2="8.02044" stroke="white" stroke-width="1.77247" stroke-linecap="round"/>
<path d="M0.974854 13.3379H34.6519" stroke="white" stroke-width="1.94972" stroke-linecap="round"/>
<path d="M27.5176 0.664673C27.5176 0.297582 27.2201 -4.69272e-06 26.853 -4.70877e-06C26.4859 -4.72481e-06 26.1883 0.297582 26.1883 0.664673L26.853 0.664673L27.5176 0.664673ZM26.853 0.664673L26.1883 0.664673L26.1883 12.363L26.853 12.363L27.5176 12.363L27.5176 0.664673L26.853 0.664673Z" fill="white"/>
<path d="M9.43842 0.664673C9.43842 0.297582 9.14083 -4.69272e-06 8.77374 -4.70877e-06C8.40665 -4.72481e-06 8.10907 0.297582 8.10907 0.664673L8.77374 0.664673L9.43842 0.664673ZM8.77374 0.664673L8.10907 0.664673L8.10906 12.363L8.77374 12.363L9.43842 12.363L9.43842 0.664673L8.77374 0.664673Z" fill="white"/>
<path d="M4.5198 20.8709C4.5198 21.4827 5.01578 21.9787 5.62759 21.9787C6.23941 21.9787 6.73539 21.4827 6.73539 20.8709H5.62759H4.5198ZM5.62759 14.2241H4.5198V20.8709H5.62759H6.73539V14.2241H5.62759Z" fill="white"/>
<path d="M30.7524 14.2241V20.8709" stroke="white" stroke-width="2.21559" stroke-linecap="round"/>
<circle cx="8.7294" cy="2.65869" r="0.310183" fill="white"/>
<circle cx="26.8973" cy="2.65869" r="0.310183" fill="white"/>
<circle cx="26.8973" cy="8.06476" r="0.310183" fill="white"/>
<circle cx="8.7294" cy="8.06476" r="0.310183" fill="white"/>
</svg>
